<mxfile host="app.diagrams.net" modified="2024-04-06T22:02:25.381Z" agent="Mozilla/5.0 (Windows NT 10.0; Win64; x64) AppleWebKit/537.36 (KHTML, like Gecko) Chrome/123.0.0.0 Safari/537.36" etag="-2Yx9-R6qfK0n2Y0IVT9" version="24.2.2" type="device">
  <diagram name="Page-1" id="NA0G25dPI3g51uv9Kyvu">
    <mxGraphModel dx="1434" dy="1588" grid="1" gridSize="10" guides="1" tooltips="1" connect="1" arrows="1" fold="1" page="1" pageScale="1" pageWidth="1400" pageHeight="850" math="0" shadow="0">
      <root>
        <mxCell id="0" />
        <mxCell id="1" parent="0" />
        <mxCell id="azeLFYZYEzjWiMU5MBCb-5" value="Pasos" style="swimlane;fontStyle=0;childLayout=stackLayout;horizontal=1;startSize=26;fillColor=none;horizontalStack=0;resizeParent=1;resizeParentMax=0;resizeLast=0;collapsible=1;marginBottom=0;whiteSpace=wrap;html=1;" vertex="1" parent="1">
          <mxGeometry x="435" y="-340" width="200" height="82" as="geometry" />
        </mxCell>
        <mxCell id="azeLFYZYEzjWiMU5MBCb-25" value="+ brojPasosa: int" style="text;strokeColor=none;fillColor=none;align=left;verticalAlign=top;spacingLeft=4;spacingRight=4;overflow=hidden;rotatable=0;points=[[0,0.5],[1,0.5]];portConstraint=eastwest;whiteSpace=wrap;html=1;" vertex="1" parent="azeLFYZYEzjWiMU5MBCb-5">
          <mxGeometry y="26" width="200" height="26" as="geometry" />
        </mxCell>
        <mxCell id="azeLFYZYEzjWiMU5MBCb-23" value="+ drzavljanstvo: String" style="text;strokeColor=none;fillColor=none;align=left;verticalAlign=top;spacingLeft=4;spacingRight=4;overflow=hidden;rotatable=0;points=[[0,0.5],[1,0.5]];portConstraint=eastwest;whiteSpace=wrap;html=1;" vertex="1" parent="azeLFYZYEzjWiMU5MBCb-5">
          <mxGeometry y="52" width="200" height="30" as="geometry" />
        </mxCell>
        <mxCell id="azeLFYZYEzjWiMU5MBCb-19" value="EPol" style="swimlane;fontStyle=0;childLayout=stackLayout;horizontal=1;startSize=26;fillColor=none;horizontalStack=0;resizeParent=1;resizeParentMax=0;resizeLast=0;collapsible=1;marginBottom=0;whiteSpace=wrap;html=1;" vertex="1" parent="1">
          <mxGeometry x="1210" y="-120" width="140" height="78" as="geometry" />
        </mxCell>
        <mxCell id="azeLFYZYEzjWiMU5MBCb-20" value="+ MUSKI" style="text;strokeColor=none;fillColor=none;align=left;verticalAlign=top;spacingLeft=4;spacingRight=4;overflow=hidden;rotatable=0;points=[[0,0.5],[1,0.5]];portConstraint=eastwest;whiteSpace=wrap;html=1;" vertex="1" parent="azeLFYZYEzjWiMU5MBCb-19">
          <mxGeometry y="26" width="140" height="26" as="geometry" />
        </mxCell>
        <mxCell id="azeLFYZYEzjWiMU5MBCb-21" value="+ ZENSKI" style="text;strokeColor=none;fillColor=none;align=left;verticalAlign=top;spacingLeft=4;spacingRight=4;overflow=hidden;rotatable=0;points=[[0,0.5],[1,0.5]];portConstraint=eastwest;whiteSpace=wrap;html=1;" vertex="1" parent="azeLFYZYEzjWiMU5MBCb-19">
          <mxGeometry y="52" width="140" height="26" as="geometry" />
        </mxCell>
        <mxCell id="azeLFYZYEzjWiMU5MBCb-26" value="Licna karta" style="swimlane;fontStyle=0;childLayout=stackLayout;horizontal=1;startSize=26;fillColor=none;horizontalStack=0;resizeParent=1;resizeParentMax=0;resizeLast=0;collapsible=1;marginBottom=0;whiteSpace=wrap;html=1;" vertex="1" parent="1">
          <mxGeometry x="160" y="-340" width="200" height="52" as="geometry" />
        </mxCell>
        <mxCell id="azeLFYZYEzjWiMU5MBCb-27" value="+ brojLicneKarte: int" style="text;strokeColor=none;fillColor=none;align=left;verticalAlign=top;spacingLeft=4;spacingRight=4;overflow=hidden;rotatable=0;points=[[0,0.5],[1,0.5]];portConstraint=eastwest;whiteSpace=wrap;html=1;" vertex="1" parent="azeLFYZYEzjWiMU5MBCb-26">
          <mxGeometry y="26" width="200" height="26" as="geometry" />
        </mxCell>
        <mxCell id="azeLFYZYEzjWiMU5MBCb-36" value="Saobracajna" style="swimlane;fontStyle=0;childLayout=stackLayout;horizontal=1;startSize=26;fillColor=none;horizontalStack=0;resizeParent=1;resizeParentMax=0;resizeLast=0;collapsible=1;marginBottom=0;whiteSpace=wrap;html=1;" vertex="1" parent="1">
          <mxGeometry x="680" y="-340" width="200" height="144" as="geometry" />
        </mxCell>
        <mxCell id="azeLFYZYEzjWiMU5MBCb-37" value="+ brojSaobracajne: int" style="text;strokeColor=none;fillColor=none;align=left;verticalAlign=top;spacingLeft=4;spacingRight=4;overflow=hidden;rotatable=0;points=[[0,0.5],[1,0.5]];portConstraint=eastwest;whiteSpace=wrap;html=1;" vertex="1" parent="azeLFYZYEzjWiMU5MBCb-36">
          <mxGeometry y="26" width="200" height="26" as="geometry" />
        </mxCell>
        <mxCell id="azeLFYZYEzjWiMU5MBCb-45" value="+ markaVozila: String" style="text;strokeColor=none;fillColor=none;align=left;verticalAlign=top;spacingLeft=4;spacingRight=4;overflow=hidden;rotatable=0;points=[[0,0.5],[1,0.5]];portConstraint=eastwest;whiteSpace=wrap;html=1;" vertex="1" parent="azeLFYZYEzjWiMU5MBCb-36">
          <mxGeometry y="52" width="200" height="26" as="geometry" />
        </mxCell>
        <mxCell id="azeLFYZYEzjWiMU5MBCb-46" value="+ modelVozila: String" style="text;strokeColor=none;fillColor=none;align=left;verticalAlign=top;spacingLeft=4;spacingRight=4;overflow=hidden;rotatable=0;points=[[0,0.5],[1,0.5]];portConstraint=eastwest;whiteSpace=wrap;html=1;" vertex="1" parent="azeLFYZYEzjWiMU5MBCb-36">
          <mxGeometry y="78" width="200" height="26" as="geometry" />
        </mxCell>
        <mxCell id="azeLFYZYEzjWiMU5MBCb-44" value="+ datumIsteka: Date" style="text;strokeColor=none;fillColor=none;align=left;verticalAlign=top;spacingLeft=4;spacingRight=4;overflow=hidden;rotatable=0;points=[[0,0.5],[1,0.5]];portConstraint=eastwest;whiteSpace=wrap;html=1;" vertex="1" parent="azeLFYZYEzjWiMU5MBCb-36">
          <mxGeometry y="104" width="200" height="40" as="geometry" />
        </mxCell>
        <mxCell id="azeLFYZYEzjWiMU5MBCb-47" value="Vozacka dozvola" style="swimlane;fontStyle=0;childLayout=stackLayout;horizontal=1;startSize=26;fillColor=none;horizontalStack=0;resizeParent=1;resizeParentMax=0;resizeLast=0;collapsible=1;marginBottom=0;whiteSpace=wrap;html=1;" vertex="1" parent="1">
          <mxGeometry x="920" y="-340" width="200" height="78" as="geometry" />
        </mxCell>
        <mxCell id="azeLFYZYEzjWiMU5MBCb-48" value="+ brojVozackeDozvole: int" style="text;strokeColor=none;fillColor=none;align=left;verticalAlign=top;spacingLeft=4;spacingRight=4;overflow=hidden;rotatable=0;points=[[0,0.5],[1,0.5]];portConstraint=eastwest;whiteSpace=wrap;html=1;" vertex="1" parent="azeLFYZYEzjWiMU5MBCb-47">
          <mxGeometry y="26" width="200" height="26" as="geometry" />
        </mxCell>
        <mxCell id="azeLFYZYEzjWiMU5MBCb-51" value="+ kategorija: String" style="text;strokeColor=none;fillColor=none;align=left;verticalAlign=top;spacingLeft=4;spacingRight=4;overflow=hidden;rotatable=0;points=[[0,0.5],[1,0.5]];portConstraint=eastwest;whiteSpace=wrap;html=1;" vertex="1" parent="azeLFYZYEzjWiMU5MBCb-47">
          <mxGeometry y="52" width="200" height="26" as="geometry" />
        </mxCell>
        <mxCell id="azeLFYZYEzjWiMU5MBCb-57" value="Dokument" style="swimlane;fontStyle=0;childLayout=stackLayout;horizontal=1;startSize=26;fillColor=none;horizontalStack=0;resizeParent=1;resizeParentMax=0;resizeLast=0;collapsible=1;marginBottom=0;whiteSpace=wrap;html=1;" vertex="1" parent="1">
          <mxGeometry x="550" y="-700" width="200" height="236" as="geometry" />
        </mxCell>
        <mxCell id="azeLFYZYEzjWiMU5MBCb-59" value="+ ime: String" style="text;strokeColor=none;fillColor=none;align=left;verticalAlign=top;spacingLeft=4;spacingRight=4;overflow=hidden;rotatable=0;points=[[0,0.5],[1,0.5]];portConstraint=eastwest;whiteSpace=wrap;html=1;" vertex="1" parent="azeLFYZYEzjWiMU5MBCb-57">
          <mxGeometry y="26" width="200" height="26" as="geometry" />
        </mxCell>
        <mxCell id="azeLFYZYEzjWiMU5MBCb-60" value="+ prezime: String" style="text;strokeColor=none;fillColor=none;align=left;verticalAlign=top;spacingLeft=4;spacingRight=4;overflow=hidden;rotatable=0;points=[[0,0.5],[1,0.5]];portConstraint=eastwest;whiteSpace=wrap;html=1;" vertex="1" parent="azeLFYZYEzjWiMU5MBCb-57">
          <mxGeometry y="52" width="200" height="26" as="geometry" />
        </mxCell>
        <mxCell id="azeLFYZYEzjWiMU5MBCb-61" value="+ datum rodjenja: Date" style="text;strokeColor=none;fillColor=none;align=left;verticalAlign=top;spacingLeft=4;spacingRight=4;overflow=hidden;rotatable=0;points=[[0,0.5],[1,0.5]];portConstraint=eastwest;whiteSpace=wrap;html=1;" vertex="1" parent="azeLFYZYEzjWiMU5MBCb-57">
          <mxGeometry y="78" width="200" height="32" as="geometry" />
        </mxCell>
        <mxCell id="azeLFYZYEzjWiMU5MBCb-62" value="+ mesto rodjenja: String" style="text;strokeColor=none;fillColor=none;align=left;verticalAlign=top;spacingLeft=4;spacingRight=4;overflow=hidden;rotatable=0;points=[[0,0.5],[1,0.5]];portConstraint=eastwest;whiteSpace=wrap;html=1;" vertex="1" parent="azeLFYZYEzjWiMU5MBCb-57">
          <mxGeometry y="110" width="200" height="26" as="geometry" />
        </mxCell>
        <mxCell id="azeLFYZYEzjWiMU5MBCb-63" value="+ pol: EPol" style="text;strokeColor=none;fillColor=none;align=left;verticalAlign=top;spacingLeft=4;spacingRight=4;overflow=hidden;rotatable=0;points=[[0,0.5],[1,0.5]];portConstraint=eastwest;whiteSpace=wrap;html=1;" vertex="1" parent="azeLFYZYEzjWiMU5MBCb-57">
          <mxGeometry y="136" width="200" height="34" as="geometry" />
        </mxCell>
        <mxCell id="azeLFYZYEzjWiMU5MBCb-35" value="+ JMBG: String" style="text;strokeColor=none;fillColor=none;align=left;verticalAlign=top;spacingLeft=4;spacingRight=4;overflow=hidden;rotatable=0;points=[[0,0.5],[1,0.5]];portConstraint=eastwest;whiteSpace=wrap;html=1;" vertex="1" parent="azeLFYZYEzjWiMU5MBCb-57">
          <mxGeometry y="170" width="200" height="26" as="geometry" />
        </mxCell>
        <mxCell id="azeLFYZYEzjWiMU5MBCb-65" value="+ datumIsteka: Date" style="text;strokeColor=none;fillColor=none;align=left;verticalAlign=top;spacingLeft=4;spacingRight=4;overflow=hidden;rotatable=0;points=[[0,0.5],[1,0.5]];portConstraint=eastwest;whiteSpace=wrap;html=1;" vertex="1" parent="azeLFYZYEzjWiMU5MBCb-57">
          <mxGeometry y="196" width="200" height="40" as="geometry" />
        </mxCell>
        <mxCell id="azeLFYZYEzjWiMU5MBCb-66" value="Extends" style="endArrow=block;endSize=16;endFill=0;html=1;rounded=0;entryX=0.5;entryY=1;entryDx=0;entryDy=0;entryPerimeter=0;exitX=0.625;exitY=0;exitDx=0;exitDy=0;exitPerimeter=0;" edge="1" parent="1" source="azeLFYZYEzjWiMU5MBCb-5" target="azeLFYZYEzjWiMU5MBCb-65">
          <mxGeometry width="160" relative="1" as="geometry">
            <mxPoint x="620" y="-360" as="sourcePoint" />
            <mxPoint x="780" y="-360" as="targetPoint" />
          </mxGeometry>
        </mxCell>
        <mxCell id="azeLFYZYEzjWiMU5MBCb-67" value="Extends" style="endArrow=block;endSize=16;endFill=0;html=1;rounded=0;entryX=0.15;entryY=1.05;entryDx=0;entryDy=0;entryPerimeter=0;exitX=0.805;exitY=-0.026;exitDx=0;exitDy=0;exitPerimeter=0;" edge="1" parent="1" source="azeLFYZYEzjWiMU5MBCb-26" target="azeLFYZYEzjWiMU5MBCb-65">
          <mxGeometry width="160" relative="1" as="geometry">
            <mxPoint x="570" y="-330" as="sourcePoint" />
            <mxPoint x="623" y="-477" as="targetPoint" />
          </mxGeometry>
        </mxCell>
        <mxCell id="azeLFYZYEzjWiMU5MBCb-68" value="Extends" style="endArrow=block;endSize=16;endFill=0;html=1;rounded=0;entryX=0.885;entryY=1.025;entryDx=0;entryDy=0;entryPerimeter=0;" edge="1" parent="1" source="azeLFYZYEzjWiMU5MBCb-47" target="azeLFYZYEzjWiMU5MBCb-65">
          <mxGeometry width="160" relative="1" as="geometry">
            <mxPoint x="580" y="-320" as="sourcePoint" />
            <mxPoint x="633" y="-467" as="targetPoint" />
          </mxGeometry>
        </mxCell>
        <mxCell id="azeLFYZYEzjWiMU5MBCb-69" value="Gradjanin" style="swimlane;fontStyle=2;align=center;verticalAlign=top;childLayout=stackLayout;horizontal=1;startSize=26;horizontalStack=0;resizeParent=1;resizeLast=0;collapsible=1;marginBottom=0;rounded=0;shadow=0;strokeWidth=1;" vertex="1" parent="1">
          <mxGeometry x="560" y="-90" width="250" height="316" as="geometry">
            <mxRectangle x="230" y="140" width="160" height="26" as="alternateBounds" />
          </mxGeometry>
        </mxCell>
        <mxCell id="azeLFYZYEzjWiMU5MBCb-70" value="+ ID: ObjectID" style="text;strokeColor=none;fillColor=none;align=left;verticalAlign=top;spacingLeft=4;spacingRight=4;overflow=hidden;rotatable=0;points=[[0,0.5],[1,0.5]];portConstraint=eastwest;whiteSpace=wrap;html=1;" vertex="1" parent="azeLFYZYEzjWiMU5MBCb-69">
          <mxGeometry y="26" width="250" height="26" as="geometry" />
        </mxCell>
        <mxCell id="azeLFYZYEzjWiMU5MBCb-71" value="+ Ime: String " style="text;align=left;verticalAlign=top;spacingLeft=4;spacingRight=4;overflow=hidden;rotatable=0;points=[[0,0.5],[1,0.5]];portConstraint=eastwest;" vertex="1" parent="azeLFYZYEzjWiMU5MBCb-69">
          <mxGeometry y="52" width="250" height="26" as="geometry" />
        </mxCell>
        <mxCell id="azeLFYZYEzjWiMU5MBCb-72" value="+ Prezime: String" style="text;align=left;verticalAlign=top;spacingLeft=4;spacingRight=4;overflow=hidden;rotatable=0;points=[[0,0.5],[1,0.5]];portConstraint=eastwest;" vertex="1" parent="azeLFYZYEzjWiMU5MBCb-69">
          <mxGeometry y="78" width="250" height="26" as="geometry" />
        </mxCell>
        <mxCell id="azeLFYZYEzjWiMU5MBCb-73" value="+ Email: String" style="text;align=left;verticalAlign=top;spacingLeft=4;spacingRight=4;overflow=hidden;rotatable=0;points=[[0,0.5],[1,0.5]];portConstraint=eastwest;rounded=0;shadow=0;html=0;" vertex="1" parent="azeLFYZYEzjWiMU5MBCb-69">
          <mxGeometry y="104" width="250" height="26" as="geometry" />
        </mxCell>
        <mxCell id="azeLFYZYEzjWiMU5MBCb-74" value="+ Lozinka: String" style="text;align=left;verticalAlign=top;spacingLeft=4;spacingRight=4;overflow=hidden;rotatable=0;points=[[0,0.5],[1,0.5]];portConstraint=eastwest;rounded=0;shadow=0;html=0;" vertex="1" parent="azeLFYZYEzjWiMU5MBCb-69">
          <mxGeometry y="130" width="250" height="26" as="geometry" />
        </mxCell>
        <mxCell id="azeLFYZYEzjWiMU5MBCb-76" value="" style="line;html=1;strokeWidth=1;align=left;verticalAlign=middle;spacingTop=-1;spacingLeft=3;spacingRight=3;rotatable=0;labelPosition=right;points=[];portConstraint=eastwest;" vertex="1" parent="azeLFYZYEzjWiMU5MBCb-69">
          <mxGeometry y="156" width="250" height="8" as="geometry" />
        </mxCell>
        <mxCell id="Bg4HaFSbxAP0BAkeTTes-51" value="    + podnesiZahtevZaPasoš(): void" style="text;strokeColor=none;fillColor=none;align=left;verticalAlign=top;spacingLeft=4;spacingRight=4;overflow=hidden;rotatable=0;points=[[0,0.5],[1,0.5]];portConstraint=eastwest;" parent="azeLFYZYEzjWiMU5MBCb-69" vertex="1">
          <mxGeometry y="164" width="250" height="26" as="geometry" />
        </mxCell>
        <mxCell id="Bg4HaFSbxAP0BAkeTTes-52" value="    + podnesiZahtevZaLičnuKartu(): void" style="text;strokeColor=none;fillColor=none;align=left;verticalAlign=top;spacingLeft=4;spacingRight=4;overflow=hidden;rotatable=0;points=[[0,0.5],[1,0.5]];portConstraint=eastwest;" parent="azeLFYZYEzjWiMU5MBCb-69" vertex="1">
          <mxGeometry y="190" width="250" height="26" as="geometry" />
        </mxCell>
        <mxCell id="Bg4HaFSbxAP0BAkeTTes-53" value="    + podnesiZahtevZaVozačkuDozvolu(): void" style="text;strokeColor=none;fillColor=none;align=left;verticalAlign=top;spacingLeft=4;spacingRight=4;overflow=hidden;rotatable=0;points=[[0,0.5],[1,0.5]];portConstraint=eastwest;" parent="azeLFYZYEzjWiMU5MBCb-69" vertex="1">
          <mxGeometry y="216" width="250" height="26" as="geometry" />
        </mxCell>
        <mxCell id="Bg4HaFSbxAP0BAkeTTes-54" value="    + podnesiZahtevZaSaobraćajnuDozvolu(): void" style="text;strokeColor=none;fillColor=none;align=left;verticalAlign=top;spacingLeft=4;spacingRight=4;overflow=hidden;rotatable=0;points=[[0,0.5],[1,0.5]];portConstraint=eastwest;" parent="azeLFYZYEzjWiMU5MBCb-69" vertex="1">
          <mxGeometry y="242" width="250" height="28" as="geometry" />
        </mxCell>
        <mxCell id="azeLFYZYEzjWiMU5MBCb-100" value="    + pratiStatusZahteva(): void" style="text;strokeColor=none;fillColor=none;align=left;verticalAlign=top;spacingLeft=4;spacingRight=4;overflow=hidden;rotatable=0;points=[[0,0.5],[1,0.5]];portConstraint=eastwest;" vertex="1" parent="azeLFYZYEzjWiMU5MBCb-69">
          <mxGeometry y="270" width="250" height="46" as="geometry" />
        </mxCell>
        <mxCell id="azeLFYZYEzjWiMU5MBCb-77" value="" style="endArrow=open;endFill=1;endSize=12;html=1;rounded=0;entryX=0.6;entryY=1.308;entryDx=0;entryDy=0;entryPerimeter=0;" edge="1" parent="1" target="azeLFYZYEzjWiMU5MBCb-27">
          <mxGeometry width="160" relative="1" as="geometry">
            <mxPoint x="620" y="-90" as="sourcePoint" />
            <mxPoint x="780" y="-90" as="targetPoint" />
          </mxGeometry>
        </mxCell>
        <mxCell id="azeLFYZYEzjWiMU5MBCb-81" value="0..1" style="edgeLabel;html=1;align=center;verticalAlign=middle;resizable=0;points=[];" vertex="1" connectable="0" parent="azeLFYZYEzjWiMU5MBCb-77">
          <mxGeometry x="0.6963" y="1" relative="1" as="geometry">
            <mxPoint as="offset" />
          </mxGeometry>
        </mxCell>
        <mxCell id="azeLFYZYEzjWiMU5MBCb-78" value="" style="endArrow=open;endFill=1;endSize=12;html=1;rounded=0;entryX=0.49;entryY=1.033;entryDx=0;entryDy=0;entryPerimeter=0;exitX=0.4;exitY=-0.029;exitDx=0;exitDy=0;exitPerimeter=0;" edge="1" parent="1" source="azeLFYZYEzjWiMU5MBCb-69" target="azeLFYZYEzjWiMU5MBCb-23">
          <mxGeometry width="160" relative="1" as="geometry">
            <mxPoint x="630" y="-80" as="sourcePoint" />
            <mxPoint x="290" y="-270" as="targetPoint" />
          </mxGeometry>
        </mxCell>
        <mxCell id="azeLFYZYEzjWiMU5MBCb-82" value="0..1" style="edgeLabel;html=1;align=center;verticalAlign=middle;resizable=0;points=[];" vertex="1" connectable="0" parent="azeLFYZYEzjWiMU5MBCb-78">
          <mxGeometry x="0.5726" y="-1" relative="1" as="geometry">
            <mxPoint as="offset" />
          </mxGeometry>
        </mxCell>
        <mxCell id="azeLFYZYEzjWiMU5MBCb-79" value="" style="endArrow=open;endFill=1;endSize=12;html=1;rounded=0;entryX=0.285;entryY=1.05;entryDx=0;entryDy=0;entryPerimeter=0;exitX=0.611;exitY=-0.018;exitDx=0;exitDy=0;exitPerimeter=0;" edge="1" parent="1" source="azeLFYZYEzjWiMU5MBCb-69" target="azeLFYZYEzjWiMU5MBCb-44">
          <mxGeometry width="160" relative="1" as="geometry">
            <mxPoint x="640" y="-70" as="sourcePoint" />
            <mxPoint x="300" y="-260" as="targetPoint" />
          </mxGeometry>
        </mxCell>
        <mxCell id="azeLFYZYEzjWiMU5MBCb-83" value="0..1" style="edgeLabel;html=1;align=center;verticalAlign=middle;resizable=0;points=[];" vertex="1" connectable="0" parent="azeLFYZYEzjWiMU5MBCb-79">
          <mxGeometry x="0.4561" y="-3" relative="1" as="geometry">
            <mxPoint as="offset" />
          </mxGeometry>
        </mxCell>
        <mxCell id="azeLFYZYEzjWiMU5MBCb-80" value="" style="endArrow=open;endFill=1;endSize=12;html=1;rounded=0;entryX=0.555;entryY=1.115;entryDx=0;entryDy=0;entryPerimeter=0;exitX=0.853;exitY=-0.018;exitDx=0;exitDy=0;exitPerimeter=0;" edge="1" parent="1" source="azeLFYZYEzjWiMU5MBCb-69" target="azeLFYZYEzjWiMU5MBCb-51">
          <mxGeometry width="160" relative="1" as="geometry">
            <mxPoint x="650" y="-60" as="sourcePoint" />
            <mxPoint x="310" y="-250" as="targetPoint" />
          </mxGeometry>
        </mxCell>
        <mxCell id="azeLFYZYEzjWiMU5MBCb-84" value="0..1" style="edgeLabel;html=1;align=center;verticalAlign=middle;resizable=0;points=[];" vertex="1" connectable="0" parent="azeLFYZYEzjWiMU5MBCb-80">
          <mxGeometry x="0.6199" y="1" relative="1" as="geometry">
            <mxPoint as="offset" />
          </mxGeometry>
        </mxCell>
        <mxCell id="azeLFYZYEzjWiMU5MBCb-85" value="Policajac" style="swimlane;fontStyle=2;align=center;verticalAlign=top;childLayout=stackLayout;horizontal=1;startSize=26;horizontalStack=0;resizeParent=1;resizeLast=0;collapsible=1;marginBottom=0;rounded=0;shadow=0;strokeWidth=1;" vertex="1" parent="1">
          <mxGeometry x="590" y="310" width="190" height="156" as="geometry">
            <mxRectangle x="230" y="140" width="160" height="26" as="alternateBounds" />
          </mxGeometry>
        </mxCell>
        <mxCell id="Bg4HaFSbxAP0BAkeTTes-57" value="    + izdaPasoš(): void" style="text;strokeColor=none;fillColor=none;align=left;verticalAlign=top;spacingLeft=4;spacingRight=4;overflow=hidden;rotatable=0;points=[[0,0.5],[1,0.5]];portConstraint=eastwest;" parent="azeLFYZYEzjWiMU5MBCb-85" vertex="1">
          <mxGeometry y="26" width="190" height="26" as="geometry" />
        </mxCell>
        <mxCell id="Bg4HaFSbxAP0BAkeTTes-58" value="    + izdaLičnuKartu(): void" style="text;strokeColor=none;fillColor=none;align=left;verticalAlign=top;spacingLeft=4;spacingRight=4;overflow=hidden;rotatable=0;points=[[0,0.5],[1,0.5]];portConstraint=eastwest;" parent="azeLFYZYEzjWiMU5MBCb-85" vertex="1">
          <mxGeometry y="52" width="190" height="26" as="geometry" />
        </mxCell>
        <mxCell id="Bg4HaFSbxAP0BAkeTTes-59" value="    + izdaVozačkuDozvolu(): void" style="text;strokeColor=none;fillColor=none;align=left;verticalAlign=top;spacingLeft=4;spacingRight=4;overflow=hidden;rotatable=0;points=[[0,0.5],[1,0.5]];portConstraint=eastwest;" parent="azeLFYZYEzjWiMU5MBCb-85" vertex="1">
          <mxGeometry y="78" width="190" height="26" as="geometry" />
        </mxCell>
        <mxCell id="Bg4HaFSbxAP0BAkeTTes-60" value="    + izdaSaobraćajnuDozvolu(): void" style="text;strokeColor=none;fillColor=none;align=left;verticalAlign=top;spacingLeft=4;spacingRight=4;overflow=hidden;rotatable=0;points=[[0,0.5],[1,0.5]];portConstraint=eastwest;" parent="azeLFYZYEzjWiMU5MBCb-85" vertex="1">
          <mxGeometry y="104" width="190" height="26" as="geometry" />
        </mxCell>
        <mxCell id="Bg4HaFSbxAP0BAkeTTes-61" value="    + pratiStatusZahteva(): void" style="text;strokeColor=none;fillColor=none;align=left;verticalAlign=top;spacingLeft=4;spacingRight=4;overflow=hidden;rotatable=0;points=[[0,0.5],[1,0.5]];portConstraint=eastwest;" parent="azeLFYZYEzjWiMU5MBCb-85" vertex="1">
          <mxGeometry y="130" width="190" height="26" as="geometry" />
        </mxCell>
        <mxCell id="azeLFYZYEzjWiMU5MBCb-99" value="Extends" style="endArrow=block;endSize=16;endFill=0;html=1;rounded=0;entryX=0.5;entryY=1;entryDx=0;entryDy=0;" edge="1" parent="1" source="azeLFYZYEzjWiMU5MBCb-85" target="azeLFYZYEzjWiMU5MBCb-69">
          <mxGeometry width="160" relative="1" as="geometry">
            <mxPoint x="590" y="224" as="sourcePoint" />
            <mxPoint x="680" y="100" as="targetPoint" />
          </mxGeometry>
        </mxCell>
        <mxCell id="azeLFYZYEzjWiMU5MBCb-101" value="Zahtev" style="swimlane;fontStyle=0;childLayout=stackLayout;horizontal=1;startSize=26;fillColor=none;horizontalStack=0;resizeParent=1;resizeParentMax=0;resizeLast=0;collapsible=1;marginBottom=0;whiteSpace=wrap;html=1;" vertex="1" parent="1">
          <mxGeometry x="240" y="140" width="140" height="130" as="geometry" />
        </mxCell>
        <mxCell id="azeLFYZYEzjWiMU5MBCb-109" value="+ ID: ObjectID" style="text;strokeColor=none;fillColor=none;align=left;verticalAlign=top;spacingLeft=4;spacingRight=4;overflow=hidden;rotatable=0;points=[[0,0.5],[1,0.5]];portConstraint=eastwest;whiteSpace=wrap;html=1;" vertex="1" parent="azeLFYZYEzjWiMU5MBCb-101">
          <mxGeometry y="26" width="140" height="26" as="geometry" />
        </mxCell>
        <mxCell id="azeLFYZYEzjWiMU5MBCb-102" value="+ datum: Date" style="text;strokeColor=none;fillColor=none;align=left;verticalAlign=top;spacingLeft=4;spacingRight=4;overflow=hidden;rotatable=0;points=[[0,0.5],[1,0.5]];portConstraint=eastwest;whiteSpace=wrap;html=1;" vertex="1" parent="azeLFYZYEzjWiMU5MBCb-101">
          <mxGeometry y="52" width="140" height="26" as="geometry" />
        </mxCell>
        <mxCell id="azeLFYZYEzjWiMU5MBCb-103" value="+ tip: ETip" style="text;strokeColor=none;fillColor=none;align=left;verticalAlign=top;spacingLeft=4;spacingRight=4;overflow=hidden;rotatable=0;points=[[0,0.5],[1,0.5]];portConstraint=eastwest;whiteSpace=wrap;html=1;" vertex="1" parent="azeLFYZYEzjWiMU5MBCb-101">
          <mxGeometry y="78" width="140" height="26" as="geometry" />
        </mxCell>
        <mxCell id="azeLFYZYEzjWiMU5MBCb-125" value="+ status: EStatus" style="text;strokeColor=none;fillColor=none;align=left;verticalAlign=top;spacingLeft=4;spacingRight=4;overflow=hidden;rotatable=0;points=[[0,0.5],[1,0.5]];portConstraint=eastwest;whiteSpace=wrap;html=1;" vertex="1" parent="azeLFYZYEzjWiMU5MBCb-101">
          <mxGeometry y="104" width="140" height="26" as="geometry" />
        </mxCell>
        <mxCell id="azeLFYZYEzjWiMU5MBCb-110" value="ETip" style="swimlane;fontStyle=0;childLayout=stackLayout;horizontal=1;startSize=26;fillColor=none;horizontalStack=0;resizeParent=1;resizeParentMax=0;resizeLast=0;collapsible=1;marginBottom=0;whiteSpace=wrap;html=1;" vertex="1" parent="1">
          <mxGeometry x="1210" y="10" width="140" height="130" as="geometry" />
        </mxCell>
        <mxCell id="azeLFYZYEzjWiMU5MBCb-111" value="+ LICNA KARTA" style="text;strokeColor=none;fillColor=none;align=left;verticalAlign=top;spacingLeft=4;spacingRight=4;overflow=hidden;rotatable=0;points=[[0,0.5],[1,0.5]];portConstraint=eastwest;whiteSpace=wrap;html=1;" vertex="1" parent="azeLFYZYEzjWiMU5MBCb-110">
          <mxGeometry y="26" width="140" height="26" as="geometry" />
        </mxCell>
        <mxCell id="azeLFYZYEzjWiMU5MBCb-112" value="+ PASOS" style="text;strokeColor=none;fillColor=none;align=left;verticalAlign=top;spacingLeft=4;spacingRight=4;overflow=hidden;rotatable=0;points=[[0,0.5],[1,0.5]];portConstraint=eastwest;whiteSpace=wrap;html=1;" vertex="1" parent="azeLFYZYEzjWiMU5MBCb-110">
          <mxGeometry y="52" width="140" height="26" as="geometry" />
        </mxCell>
        <mxCell id="azeLFYZYEzjWiMU5MBCb-113" value="+ SAOBRACAJNA" style="text;strokeColor=none;fillColor=none;align=left;verticalAlign=top;spacingLeft=4;spacingRight=4;overflow=hidden;rotatable=0;points=[[0,0.5],[1,0.5]];portConstraint=eastwest;whiteSpace=wrap;html=1;" vertex="1" parent="azeLFYZYEzjWiMU5MBCb-110">
          <mxGeometry y="78" width="140" height="26" as="geometry" />
        </mxCell>
        <mxCell id="azeLFYZYEzjWiMU5MBCb-114" value="+ VOZACKA DOZVOLA" style="text;strokeColor=none;fillColor=none;align=left;verticalAlign=top;spacingLeft=4;spacingRight=4;overflow=hidden;rotatable=0;points=[[0,0.5],[1,0.5]];portConstraint=eastwest;whiteSpace=wrap;html=1;" vertex="1" parent="azeLFYZYEzjWiMU5MBCb-110">
          <mxGeometry y="104" width="140" height="26" as="geometry" />
        </mxCell>
        <mxCell id="azeLFYZYEzjWiMU5MBCb-115" value="" style="endArrow=none;html=1;rounded=0;entryX=0;entryY=0.5;entryDx=0;entryDy=0;exitX=1.014;exitY=-0.077;exitDx=0;exitDy=0;exitPerimeter=0;" edge="1" parent="1" source="azeLFYZYEzjWiMU5MBCb-102" target="Bg4HaFSbxAP0BAkeTTes-52">
          <mxGeometry width="50" height="50" relative="1" as="geometry">
            <mxPoint x="670" y="220" as="sourcePoint" />
            <mxPoint x="720" y="170" as="targetPoint" />
          </mxGeometry>
        </mxCell>
        <mxCell id="azeLFYZYEzjWiMU5MBCb-116" value="1..1" style="edgeLabel;html=1;align=center;verticalAlign=middle;resizable=0;points=[];" vertex="1" connectable="0" parent="azeLFYZYEzjWiMU5MBCb-115">
          <mxGeometry x="0.7348" y="3" relative="1" as="geometry">
            <mxPoint y="-1" as="offset" />
          </mxGeometry>
        </mxCell>
        <mxCell id="azeLFYZYEzjWiMU5MBCb-117" value="0..*" style="edgeLabel;html=1;align=center;verticalAlign=middle;resizable=0;points=[];" vertex="1" connectable="0" parent="azeLFYZYEzjWiMU5MBCb-115">
          <mxGeometry x="-0.7234" y="1" relative="1" as="geometry">
            <mxPoint as="offset" />
          </mxGeometry>
        </mxCell>
        <mxCell id="azeLFYZYEzjWiMU5MBCb-118" value="Nalog za pracenje" style="swimlane;fontStyle=0;childLayout=stackLayout;horizontal=1;startSize=26;fillColor=none;horizontalStack=0;resizeParent=1;resizeParentMax=0;resizeLast=0;collapsible=1;marginBottom=0;whiteSpace=wrap;html=1;" vertex="1" parent="1">
          <mxGeometry x="940" y="140" width="140" height="104" as="geometry" />
        </mxCell>
        <mxCell id="azeLFYZYEzjWiMU5MBCb-119" value="+ ID: ObjectID" style="text;strokeColor=none;fillColor=none;align=left;verticalAlign=top;spacingLeft=4;spacingRight=4;overflow=hidden;rotatable=0;points=[[0,0.5],[1,0.5]];portConstraint=eastwest;whiteSpace=wrap;html=1;" vertex="1" parent="azeLFYZYEzjWiMU5MBCb-118">
          <mxGeometry y="26" width="140" height="26" as="geometry" />
        </mxCell>
        <mxCell id="azeLFYZYEzjWiMU5MBCb-124" value="+ opis: String" style="text;strokeColor=none;fillColor=none;align=left;verticalAlign=top;spacingLeft=4;spacingRight=4;overflow=hidden;rotatable=0;points=[[0,0.5],[1,0.5]];portConstraint=eastwest;whiteSpace=wrap;html=1;" vertex="1" parent="azeLFYZYEzjWiMU5MBCb-118">
          <mxGeometry y="52" width="140" height="26" as="geometry" />
        </mxCell>
        <mxCell id="azeLFYZYEzjWiMU5MBCb-120" value="+ datum: Date" style="text;strokeColor=none;fillColor=none;align=left;verticalAlign=top;spacingLeft=4;spacingRight=4;overflow=hidden;rotatable=0;points=[[0,0.5],[1,0.5]];portConstraint=eastwest;whiteSpace=wrap;html=1;" vertex="1" parent="azeLFYZYEzjWiMU5MBCb-118">
          <mxGeometry y="78" width="140" height="26" as="geometry" />
        </mxCell>
        <mxCell id="azeLFYZYEzjWiMU5MBCb-122" value="" style="endArrow=open;endFill=1;endSize=12;html=1;rounded=0;entryX=1;entryY=0.5;entryDx=0;entryDy=0;exitX=0;exitY=-0.077;exitDx=0;exitDy=0;exitPerimeter=0;" edge="1" parent="1" source="azeLFYZYEzjWiMU5MBCb-120" target="Bg4HaFSbxAP0BAkeTTes-51">
          <mxGeometry width="160" relative="1" as="geometry">
            <mxPoint x="600" y="170" as="sourcePoint" />
            <mxPoint x="760" y="170" as="targetPoint" />
          </mxGeometry>
        </mxCell>
        <mxCell id="azeLFYZYEzjWiMU5MBCb-123" value="1..1" style="edgeLabel;html=1;align=center;verticalAlign=middle;resizable=0;points=[];" vertex="1" connectable="0" parent="azeLFYZYEzjWiMU5MBCb-122">
          <mxGeometry x="0.5403" y="-3" relative="1" as="geometry">
            <mxPoint as="offset" />
          </mxGeometry>
        </mxCell>
        <mxCell id="azeLFYZYEzjWiMU5MBCb-126" value="EStatus" style="swimlane;fontStyle=0;childLayout=stackLayout;horizontal=1;startSize=26;fillColor=none;horizontalStack=0;resizeParent=1;resizeParentMax=0;resizeLast=0;collapsible=1;marginBottom=0;whiteSpace=wrap;html=1;" vertex="1" parent="1">
          <mxGeometry x="1210" y="180" width="140" height="104" as="geometry" />
        </mxCell>
        <mxCell id="azeLFYZYEzjWiMU5MBCb-127" value="+ POSLAT" style="text;strokeColor=none;fillColor=none;align=left;verticalAlign=top;spacingLeft=4;spacingRight=4;overflow=hidden;rotatable=0;points=[[0,0.5],[1,0.5]];portConstraint=eastwest;whiteSpace=wrap;html=1;" vertex="1" parent="azeLFYZYEzjWiMU5MBCb-126">
          <mxGeometry y="26" width="140" height="26" as="geometry" />
        </mxCell>
        <mxCell id="azeLFYZYEzjWiMU5MBCb-128" value="+ OBRADA" style="text;strokeColor=none;fillColor=none;align=left;verticalAlign=top;spacingLeft=4;spacingRight=4;overflow=hidden;rotatable=0;points=[[0,0.5],[1,0.5]];portConstraint=eastwest;whiteSpace=wrap;html=1;" vertex="1" parent="azeLFYZYEzjWiMU5MBCb-126">
          <mxGeometry y="52" width="140" height="26" as="geometry" />
        </mxCell>
        <mxCell id="azeLFYZYEzjWiMU5MBCb-129" value="+ ZAVRSEN" style="text;strokeColor=none;fillColor=none;align=left;verticalAlign=top;spacingLeft=4;spacingRight=4;overflow=hidden;rotatable=0;points=[[0,0.5],[1,0.5]];portConstraint=eastwest;whiteSpace=wrap;html=1;" vertex="1" parent="azeLFYZYEzjWiMU5MBCb-126">
          <mxGeometry y="78" width="140" height="26" as="geometry" />
        </mxCell>
      </root>
    </mxGraphModel>
  </diagram>
</mxfile>
